<svg version="1.1" viewBox="0.0 0.0 900.0 900.0" fill="none" stroke="none" stroke-linecap="square" stroke-miterlimit="10" xmlns:xlink="http://www.w3.org/1999/xlink" xmlns="http://www.w3.org/2000/svg"><clipPath id="p.0"><path d="m0 0l900.0 0l0 900.0l-900.0 0l0 -900.0z" clip-rule="nonzero"/></clipPath><g clip-path="url(#p.0)"><path fill="#000000" fill-opacity="0.0" d="m0 0l900.0 0l0 900.0l-900.0 0z" fill-rule="evenodd"/><path fill="#444444" d="m0 0l900.0 0l0 900.0l-900.0 0z" fill-rule="evenodd"/><path fill="#ffffff" d="m177.19363 616.2031l0 19.203125q0 4.390625 -1.59375 5.984375q-1.59375 1.609375 -6.0 1.609375l-58.0 0q-4.40625 0 -6.0 -1.609375q-1.59375 -1.59375 -1.59375 -5.984375l0 -343.20312q0 -4.40625 1.59375 -6.0q1.59375 -1.609375 6.0 -1.609375l58.0 0q4.40625 0 6.0 1.609375q1.59375 1.59375 1.59375 6.0l0 20.390625q0 4.40625 -1.59375 6.015625q-1.59375 1.59375 -6.0 1.1875l-27.203125 -2.0l0 293.20312l27.203125 -2.0q4.40625 -0.40625 6.0 1.1875q1.59375 1.609375 1.59375 6.015625zm27.206284 -39.203125l0 -19.59375q0 -6.0 6.0 -6.0l20.796875 0l0 -208.0l-20.796875 0q-6.0 0 -6.0 -6.0l0 -20.0q0 -6.0 6.0 -6.0q51.20311 -2.40625 83.593735 -2.40625q106.40625 0 106.40625 78.0q0 40.40625 -26.0 64.0q-26.0 23.59375 -70.796875 23.59375q-17.609375 0 -27.609375 -1.1875l0 78.0l33.203125 0q6.0 0 6.0 6.0l0 19.59375q0 6.0 -6.0 6.0l-98.79686 0q-6.0 0 -6.0 -6.0zm71.593735 -234.79688l0 100.390625q3.609375 0.40625 18.40625 0.40625q60.0 0 60.0 -53.203125q0 -19.203125 -9.796875 -30.203125q-9.796875 -11.0 -22.796875 -14.1875q-13.0 -3.203125 -31.40625 -3.203125l-14.40625 0zm226.40634 1.59375l0 82.40625l121.203156 0l0 -82.40625l-21.203125 0q-6.0 0 -6.0 -6.0l0 -20.390625q0 -6.0 6.0 -6.0l87.203125 0q6.0 0 6.0 6.0l0 20.390625q0 6.0 -6.0 6.0l-21.203125 0l0 207.60938l21.203125 0q6.0 0 6.0 6.0l0 19.59375q0 6.0 -6.0 6.0l-87.203125 0q-6.0 0 -6.0 -6.0l0 -19.59375q0 -6.0 6.0 -6.0l21.203125 0l0 -90.8125l-121.203156 0l0 90.8125l21.203156 0q6.0 0 6.0 6.0l0 19.59375q0 6.0 -6.0 6.0l-87.203156 0q-6.0 0 -6.0 -6.0l0 -19.59375q0 -6.0 6.0 -6.0l21.203125 0l0 -207.60938l-21.203125 0q-6.0 0 -6.0 -6.0l0 -20.390625q0 -6.0 6.0 -6.0l87.203156 0q6.0 0 6.0 6.0l0 20.390625q0 6.0 -6.0 6.0l-21.203156 0zm220.40323 291.60938l0 -19.203125q0 -4.40625 1.59375 -6.015625q1.609375 -1.59375 6.0 -1.1875l27.203125 2.0l0 -293.20312l-27.203125 2.0q-4.390625 0.40625 -6.0 -1.1875q-1.59375 -1.609375 -1.59375 -6.015625l0 -20.390625q0 -4.40625 1.59375 -6.0q1.609375 -1.609375 6.0 -1.609375l58.0 0q4.40625 0 6.0 1.609375q1.609375 1.59375 1.609375 6.0l0 343.20312q0 4.390625 -1.609375 5.984375q-1.59375 1.609375 -6.0 1.609375l-58.0 0q-4.390625 0 -6.0 -1.609375q-1.59375 -1.59375 -1.59375 -5.984375z" fill-rule="nonzero"/><path fill="#000000" fill-opacity="0.0" d="m76.62992 753.2598l746.7401 0l0 73.03937l-746.7401 0z" fill-rule="evenodd"/><path fill="#ffffff" d="m103.05723 777.02325l0 -2.078125q0 -0.609375 0.609375 -0.609375l6.03125 0q0.609375 0 0.609375 0.609375l0 12.3125q2.234375 -3.3125 6.1875 -3.3125q6.203125 0 6.203125 6.796875l0 10.28125l2.359375 0q0.609375 0 0.609375 0.59375l0 1.96875q0 0.59375 -0.609375 0.59375l-8.75 0q-0.609375 0 -0.609375 -0.59375l0 -1.96875q0 -0.59375 0.609375 -0.59375l1.90625 0l0 -8.28125q0 -2.515625 -0.640625 -3.671875q-0.625 -1.171875 -2.625 -1.171875q-2.0 0 -3.328125 1.203125q-1.3125 1.203125 -1.3125 2.71875l0 9.203125l2.4375 0q0.59375 0 0.59375 0.59375l0 1.96875q0 0.59375 -0.59375 0.59375l-9.078125 0q-0.609375 0 -0.609375 -0.59375l0 -1.96875q0 -0.59375 0.609375 -0.59375l2.15625 0l0 -23.40625l-2.15625 0q-0.609375 0 -0.609375 -0.59375zm31.116234 10.640625l0 10.078125q0 1.875 0.484375 2.71875q0.484375 0.84375 1.796875 0.84375q1.328125 0 2.5625 -0.5625q0.4375 -0.15625 0.640625 0.3125l0.71875 1.84375q0.046875 0.125 0.046875 0.34375q0 0.21875 -0.40625 0.453125q-1.921875 0.96875 -4.5625 0.96875q-3.546875 0 -4.671875 -1.84375q-0.796875 -1.203125 -0.921875 -2.328125q-0.15625 -1.515625 -0.15625 -3.1875l0 -9.640625l-2.2812576 0q-0.609375 0 -0.609375 -0.609375l0 -2.078125q0 -0.59375 0.609375 -0.59375l2.2812576 0l0 -5.40625q0 -0.59375 0.59375 -0.59375l3.28125 0q0.59375 0 0.59375 0.59375l0 5.40625l4.046875 0q0.59375 0 0.59375 0.59375l0 2.078125q0 0.609375 -0.59375 0.609375l-4.046875 0zm14.759979 0l0 10.078125q0 1.875 0.484375 2.71875q0.484375 0.84375 1.796875 0.84375q1.328125 0 2.5625 -0.5625q0.4375 -0.15625 0.640625 0.3125l0.71875 1.84375q0.046875 0.125 0.046875 0.34375q0 0.21875 -0.40625 0.453125q-1.921875 0.96875 -4.5625 0.96875q-3.546875 0 -4.671875 -1.84375q-0.796875 -1.203125 -0.921875 -2.328125q-0.15625 -1.515625 -0.15625 -3.1875l0 -9.640625l-2.28125 0q-0.609375 0 -0.609375 -0.609375l0 -2.078125q0 -0.59375 0.609375 -0.59375l2.28125 0l0 -5.40625q0 -0.59375 0.59375 -0.59375l3.28125 0q0.59375 0 0.59375 0.59375l0 5.40625l4.046875 0q0.59375 0 0.59375 0.59375l0 2.078125q0 0.609375 -0.59375 0.609375l-4.046875 0zm10.369354 22.5625l0 -22.5625l-2.15625 0q-0.609375 0 -0.609375 -0.609375l0 -2.078125q0 -0.59375 0.609375 -0.59375l5.4375 0q0.46875 0 0.59375 0.59375l0.40625 2.40625q2.03125 -3.4375 6.28125 -3.4375q3.671875 0 5.75 2.421875q2.078125 2.40625 2.078125 7.125q0 5.734375 -2.4375 8.453125q-2.4375 2.71875 -6.28125 2.71875q-3.15625 0 -5.1875 -1.6875l0 7.203125l4.234375 0q0.59375 0 0.59375 0.59375l0 2.0q0 0.609375 -0.59375 0.609375l-10.84375 0q-0.59375 0 -0.59375 -0.609375l0 -1.953125q0 -0.59375 0.59375 -0.59375l2.125 0zm4.484375 -18.203125l0 7.640625q0.640625 0.640625 1.953125 1.15625q1.3125 0.515625 2.59375 0.515625q2.328125 0 3.578125 -1.578125q1.265625 -1.578125 1.265625 -5.34375q0 -5.109375 -2.234375 -6.28125q-0.96875 -0.515625 -2.65625 -0.515625q-1.671875 0 -3.09375 1.1875q-1.40625 1.171875 -1.40625 3.21875zm17.547485 -1.921875q0 -2.640625 2.03125 -4.390625q2.046875 -1.765625 5.171875 -1.765625q3.125 0 5.40625 0.71875q0.5625 0.15625 0.5625 0.71875l0 4.234375q0 0.609375 -0.609375 0.609375l-2.3125 0q-0.640625 0 -0.53125 -0.609375l0.203125 -2.03125q-1.203125 -0.640625 -2.640625 -0.640625q-3.203125 0 -3.203125 2.234375q0 1.15625 1.046875 1.84375q1.046875 0.671875 2.515625 1.09375q1.484375 0.421875 2.984375 0.96875q1.5 0.53125 2.53125 1.84375q1.046875 1.296875 1.046875 3.296875q0 3.03125 -2.125 4.734375q-2.109375 1.703125 -5.953125 1.703125q-2.671875 0 -5.640625 -0.796875q-0.515625 -0.171875 -0.515625 -0.765625l0 -4.234375q0 -0.609375 0.59375 -0.609375l2.328125 0q0.59375 0 0.5625 0.609375l-0.125 2.078125q1.078125 0.796875 3.078125 0.796875q3.5625 0 3.5625 -2.515625q0 -1.28125 -1.03125 -2.015625q-1.015625 -0.75 -2.484375 -1.140625q-1.453125 -0.40625 -2.9375 -0.90625q-1.46875 -0.5 -2.5 -1.765625q-1.015625 -1.265625 -1.015625 -3.296875zm22.639984 14.046875q-0.796875 0.796875 -2.203125 0.796875q-1.390625 0 -2.1875 -0.78125q-0.796875 -0.78125 -0.796875 -1.953125q0 -1.1875 0.828125 -1.984375q0.84375 -0.8125 2.15625 -0.8125q1.328125 0 2.171875 0.765625q0.84375 0.765625 0.84375 1.96875q0 1.1875 -0.8125 2.0zm0 -16.0q-0.796875 0.796875 -2.203125 0.796875q-1.390625 0 -2.1875 -0.78125q-0.796875 -0.78125 -0.796875 -1.953125q0 -1.1875 0.828125 -1.984375q0.84375 -0.8125 2.15625 -0.8125q1.328125 0 2.171875 0.765625q0.84375 0.765625 0.84375 1.96875q0 1.1875 -0.8125 2.0zm19.722488 -13.765625q0.609375 0 0.609375 0.3125q0 0.171875 -0.09375 0.40625l-11.796875 32.390625q-0.15625 0.453125 -0.34375 0.59375q-0.171875 0.140625 -0.65625 0.140625l-1.5625 0q-0.59375 0 -0.59375 -0.328125q0 -0.15625 0.078125 -0.40625l11.765625 -32.390625q0.15625 -0.4375 0.328125 -0.578125q0.1875 -0.140625 0.671875 -0.140625l1.59375 0zm17.959976 0q0.609375 0 0.609375 0.3125q0 0.171875 -0.09375 0.40625l-11.796875 32.390625q-0.15625 0.453125 -0.34375 0.59375q-0.171875 0.140625 -0.65625 0.140625l-1.5625 0q-0.59375 0 -0.59375 -0.328125q0 -0.15625 0.078125 -0.40625l11.765625 -32.390625q0.15625 -0.4375 0.328125 -0.578125q0.1875 -0.140625 0.671875 -0.140625l1.59375 0zm5.725601 35.84375l0 -22.5625l-2.15625 0q-0.609375 0 -0.609375 -0.609375l0 -2.078125q0 -0.59375 0.609375 -0.59375l5.4375 0q0.46875 0 0.59375 0.59375l0.40625 2.40625q2.03125 -3.4375 6.2812347 -3.4375q3.671875 0 5.75 2.421875q2.078125 2.40625 2.078125 7.125q0 5.734375 -2.4375 8.453125q-2.4375 2.71875 -6.28125 2.71875q-3.1562347 0 -5.1874847 -1.6875l0 7.203125l4.2343597 0q0.59375 0 0.59375 0.59375l0 2.0q0 0.609375 -0.59375 0.609375l-10.843735 0q-0.59375 0 -0.59375 -0.609375l0 -1.953125q0 -0.59375 0.59375 -0.59375l2.125 0zm4.484375 -18.203125l0 7.640625q0.640625 0.640625 1.953125 1.15625q1.3125 0.515625 2.5937347 0.515625q2.328125 0 3.578125 -1.578125q1.265625 -1.578125 1.265625 -5.34375q0 -5.109375 -2.234375 -6.28125q-0.96875 -0.515625 -2.65625 -0.515625q-1.6718597 0 -3.0937347 1.1875q-1.40625 1.171875 -1.40625 3.21875zm23.313095 -4.203125q0.6875 -1.59375 2.203125 -2.734375q1.515625 -1.140625 3.3125 -1.140625q1.796875 0 2.765625 0.3125q0.484375 0.15625 0.484375 0.71875l0 5.40625q0 0.59375 -0.609375 0.59375l-2.59375 0q-0.609375 0 -0.5625 -0.59375l0.15625 -2.328125q-0.203125 -0.03125 -0.671875 -0.03125q-1.84375 0 -3.046875 1.5q-1.203125 1.5 -1.203125 4.015625l0 7.484375l4.40625 0q0.59375 0 0.59375 0.59375l0 1.96875q0 0.59375 -0.59375 0.59375l-11.0 0q-0.59375 0 -0.59375 -0.59375l0 -1.96875q0 -0.59375 0.59375 -0.59375l2.125 0l0 -13.359375l-2.171875 0q-0.59375 0 -0.59375 -0.609375l0 -2.078125q0 -0.59375 0.59375 -0.59375l5.28125 0q0.5625 0 0.6875 0.59375l0.4375 2.84375zm11.446228 6.765625q0 -3.0 0.90625 -5.203125q0.921875 -2.203125 2.40625 -3.328125q2.84375 -2.109375 6.15625 -2.109375q2.4375 0 4.125 0.765625q1.6875 0.75 2.625 1.75q0.9375 1.0 1.59375 2.890625q0.65625 1.875 0.65625 4.390625q0 5.359375 -2.703125 8.140625q-2.6875 2.78125 -6.890625 2.78125q-4.203125 0 -6.546875 -2.53125q-2.328125 -2.546875 -2.328125 -7.546875zm9.1875 6.796875q2.40625 0 3.5 -1.78125q1.109375 -1.78125 1.109375 -5.296875q0 -3.53125 -1.109375 -5.296875q-1.09375 -1.78125 -3.578125 -1.78125q-4.59375 0 -4.59375 6.46875q0 7.6875 4.671875 7.6875zm30.279999 -13.71875l0 14.203125q0 2.546875 -0.1875 4.75q-0.328125 3.40625 -2.515625 5.28125q-2.171875 1.875 -6.171875 1.875q-4.0 0 -6.71875 -1.1875q-0.484375 -0.203125 -0.3125 -0.8125l0.71875 -2.109375q0.15625 -0.5625 0.796875 -0.328125q2.4375 1.0 4.9375 1.0q2.5 0 3.734375 -1.203125q1.25 -1.1875 1.25 -4.234375l0 -3.125q-1.765625 2.890625 -5.6875 2.890625q-3.921875 0 -5.984375 -2.515625q-2.046875 -2.53125 -2.046875 -7.671875q0 -5.140625 2.40625 -7.828125q2.421875 -2.703125 6.078125 -2.703125q3.671875 0 5.90625 2.59375l0.40625 -1.5625q0.203125 -0.59375 0.71875 -0.59375l4.875 0q0.609375 0 0.609375 0.59375l0 2.078125q0 0.609375 -0.609375 0.609375l-2.203125 0zm-4.46875 9.03125l0 -7.109375q-0.171875 -0.25 -0.515625 -0.609375q-0.328125 -0.359375 -1.46875 -0.9375q-1.140625 -0.578125 -2.453125 -0.578125q-2.125 0 -3.453125 1.578125q-1.3125 1.578125 -1.3125 5.0625q0 3.484375 0.953125 5.3125q0.96875 1.8125 3.71875 1.8125q1.765625 0 3.140625 -1.234375q1.390625 -1.25 1.390625 -3.296875zm15.674957 -8.875q0.6875 -1.59375 2.203125 -2.734375q1.515625 -1.140625 3.3125 -1.140625q1.796875 0 2.765625 0.3125q0.484375 0.15625 0.484375 0.71875l0 5.40625q0 0.59375 -0.609375 0.59375l-2.59375 0q-0.609375 0 -0.5625 -0.59375l0.15625 -2.328125q-0.203125 -0.03125 -0.671875 -0.03125q-1.84375 0 -3.046875 1.5q-1.203125 1.5 -1.203125 4.015625l0 7.484375l4.40625 0q0.59375 0 0.59375 0.59375l0 1.96875q0 0.59375 -0.59375 0.59375l-11.0 0q-0.59375 0 -0.59375 -0.59375l0 -1.96875q0 -0.59375 0.59375 -0.59375l2.125 0l0 -13.359375l-2.171875 0q-0.59375 0 -0.59375 -0.609375l0 -2.078125q0 -0.59375 0.59375 -0.59375l5.28125 0q0.5625 0 0.6875 0.59375l0.4375 2.84375zm23.164978 4.484375l0 -1.40625q0 -2.84375 -1.609375 -3.5625q-0.75 -0.3125 -2.203125 -0.3125q-2.71875 0 -3.265625 2.5625q-0.125 0.59375 -0.609375 0.59375l-2.5625 0q-0.640625 0 -0.5625 -0.59375q0.171875 -2.921875 2.359375 -4.28125q2.203125 -1.359375 5.609375 -1.359375q7.15625 0 7.15625 6.546875l0 10.53125l1.71875 0q0.609375 0 0.609375 0.59375l0 1.96875q0 0.59375 -0.609375 0.59375l-4.71875 0q-0.515625 0 -0.59375 -0.59375l-0.28125 -1.84375q-2.15625 2.921875 -6.25 2.921875q-2.546875 0 -4.234375 -1.34375q-1.671875 -1.34375 -1.671875 -4.296875q0 -3.890625 3.234375 -5.328125q2.671875 -1.234375 6.40625 -1.359375q0.75 0 2.078125 -0.03125zm0.078125 5.828125l0 -3.078125q-3.84375 0 -4.734375 0.359375q-0.875 0.359375 -1.546875 0.71875q-1.28125 0.6875 -1.28125 2.484375q0 2.765625 3.15625 2.765625q2.078125 0 3.234375 -0.984375q1.171875 -0.984375 1.171875 -2.265625zm8.756866 -11.078125l0 -2.078125q0 -0.59375 0.59375 -0.59375l5.484375 0q0.515625 0 0.609375 0.59375l0.3125 2.328125q2.078125 -3.359375 6.234375 -3.359375q4.171875 0 5.484375 3.515625q2.15625 -3.515625 6.28125 -3.515625q6.203125 0 6.203125 6.796875l0 10.28125l2.28125 0q0.59375 0 0.59375 0.59375l0 1.96875q0 0.59375 -0.59375 0.59375l-8.796875 0q-0.609375 0 -0.609375 -0.59375l0 -1.96875q0 -0.59375 0.609375 -0.59375l2.03125 0l0 -8.28125q0 -2.515625 -0.640625 -3.671875q-0.640625 -1.171875 -2.578125 -1.171875q-1.9375 0 -3.109375 1.046875q-1.15625 1.03125 -1.15625 2.4375l0 9.640625l1.921875 0q0.609375 0 0.609375 0.59375l0 1.96875q0 0.59375 -0.609375 0.59375l-8.203125 0q-0.59375 0 -0.59375 -0.59375l0 -1.96875q0 -0.59375 0.59375 -0.59375l1.8125 0l0 -8.28125q0 -2.515625 -0.640625 -3.671875q-0.640625 -1.171875 -2.625 -1.171875q-1.984375 0 -3.125 1.1875q-1.140625 1.171875 -1.140625 2.734375l0 9.203125l2.453125 0q0.59375 0 0.59375 0.59375l0 1.96875q0 0.59375 -0.59375 0.59375l-9.046875 0q-0.59375 0 -0.59375 -0.59375l0 -1.96875q0 -0.59375 0.59375 -0.59375l2.125 0l0 -13.359375l-2.171875 0q-0.59375 0 -0.59375 -0.609375zm35.71997 0l0 -2.078125q0 -0.59375 0.59375 -0.59375l5.484375 0q0.515625 0 0.609375 0.59375l0.3125 2.328125q2.078125 -3.359375 6.234375 -3.359375q4.171875 0 5.484375 3.515625q2.15625 -3.515625 6.28125 -3.515625q6.203125 0 6.203125 6.796875l0 10.28125l2.28125 0q0.59375 0 0.59375 0.59375l0 1.96875q0 0.59375 -0.59375 0.59375l-8.796875 0q-0.609375 0 -0.609375 -0.59375l0 -1.96875q0 -0.59375 0.609375 -0.59375l2.03125 0l0 -8.28125q0 -2.515625 -0.640625 -3.671875q-0.640625 -1.171875 -2.578125 -1.171875q-1.9375 0 -3.109375 1.046875q-1.15625 1.03125 -1.15625 2.4375l0 9.640625l1.921875 0q0.609375 0 0.609375 0.59375l0 1.96875q0 0.59375 -0.609375 0.59375l-8.203125 0q-0.59375 0 -0.59375 -0.59375l0 -1.96875q0 -0.59375 0.59375 -0.59375l1.8125 0l0 -8.28125q0 -2.515625 -0.640625 -3.671875q-0.640625 -1.171875 -2.625 -1.171875q-1.984375 0 -3.125 1.1875q-1.140625 1.171875 -1.140625 2.734375l0 9.203125l2.453125 0q0.59375 0 0.59375 0.59375l0 1.96875q0 0.59375 -0.59375 0.59375l-9.046875 0q-0.59375 0 -0.59375 -0.59375l0 -1.96875q0 -0.59375 0.59375 -0.59375l2.125 0l0 -13.359375l-2.171875 0q-0.59375 0 -0.59375 -0.609375zm42.954346 13.96875l2.53125 0q0.59375 0 0.59375 0.59375l0 1.96875q0 0.59375 -0.59375 0.59375l-9.53125 0q-0.59375 0 -0.59375 -0.59375l0 -1.96875q0 -0.59375 0.59375 -0.59375q0 0 2.53125 0l0 -13.359375l-2.171875 0q-0.59375 0 -0.59375 -0.609375l0 -2.078125q0 -0.59375 0.59375 -0.59375l6.046875 0q0.59375 0 0.59375 0.59375l0 16.046875zm-4.84375 -20.203125q-0.75 -0.796875 -0.75 -2.03125q0 -1.25 0.78125 -2.0625q0.78125 -0.828125 2.078125 -0.828125q1.296875 0 2.078125 0.828125q0.78125 0.8125 0.78125 2.0625q0 1.234375 -0.796875 2.03125q-0.796875 0.796875 -2.109375 0.796875q-1.296875 0 -2.0625 -0.796875zm9.369385 6.28125l0 -2.125q0 -0.59375 0.59375 -0.59375l5.453125 0q0.515625 0 0.640625 0.59375l0.359375 2.328125q2.234375 -3.359375 6.390625 -3.359375q6.203125 0 6.203125 6.796875l0 10.28125l2.3125 0q0.609375 0 0.609375 0.59375l0 1.96875q0 0.59375 -0.609375 0.59375l-8.71875 0q-0.59375 0 -0.59375 -0.59375l0 -1.96875q0 -0.59375 0.59375 -0.59375l1.921875 0l0 -8.28125q0 -2.515625 -0.640625 -3.671875q-0.640625 -1.171875 -2.640625 -1.171875q-2.0 0 -3.328125 1.203125q-1.3125 1.203125 -1.3125 2.71875l0 9.203125l2.484375 0q0.59375 0 0.59375 0.59375l0 1.96875q0 0.59375 -0.59375 0.59375l-9.078125 0q-0.59375 0 -0.59375 -0.59375l0 -1.96875q0 -0.59375 0.59375 -0.59375l2.125 0l0 -13.359375l-2.171875 0q-0.59375 0 -0.59375 -0.5625zm42.753723 0.5625l0 14.203125q0 2.546875 -0.1875 4.75q-0.328125 3.40625 -2.515625 5.28125q-2.171875 1.875 -6.171875 1.875q-4.0 0 -6.71875 -1.1875q-0.484375 -0.203125 -0.3125 -0.8125l0.71875 -2.109375q0.15625 -0.5625 0.796875 -0.328125q2.4375 1.0 4.9375 1.0q2.5 0 3.734375 -1.203125q1.25 -1.1875 1.25 -4.234375l0 -3.125q-1.765625 2.890625 -5.6875 2.890625q-3.921875 0 -5.984375 -2.515625q-2.046875 -2.53125 -2.046875 -7.671875q0 -5.140625 2.40625 -7.828125q2.421875 -2.703125 6.078125 -2.703125q3.671875 0 5.90625 2.59375l0.40625 -1.5625q0.203125 -0.59375 0.71875 -0.59375l4.875 0q0.609375 0 0.609375 0.59375l0 2.078125q0 0.609375 -0.609375 0.609375l-2.203125 0zm-4.46875 9.03125l0 -7.109375q-0.171875 -0.25 -0.515625 -0.609375q-0.328125 -0.359375 -1.46875 -0.9375q-1.140625 -0.578125 -2.453125 -0.578125q-2.125 0 -3.453125 1.578125q-1.3125 1.578125 -1.3125 5.0625q0 3.484375 0.953125 5.3125q0.96875 1.8125 3.71875 1.8125q1.765625 0 3.140625 -1.234375q1.390625 -1.25 1.390625 -3.296875zm8.471863 -19.671875l0 -2.078125q0 -0.609375 0.609375 -0.609375l6.03125 0q0.609375 0 0.609375 0.609375l0 12.3125q2.234375 -3.3125 6.1875305 -3.3125q6.203125 0 6.203125 6.796875l0 10.28125l2.359375 0q0.609375 0 0.609375 0.59375l0 1.96875q0 0.59375 -0.609375 0.59375l-8.75 0q-0.6094055 0 -0.6094055 -0.59375l0 -1.96875q0 -0.59375 0.6094055 -0.59375l1.90625 0l0 -8.28125q0 -2.515625 -0.640625 -3.671875q-0.625 -1.171875 -2.6250305 -1.171875q-2.0 0 -3.328125 1.203125q-1.3125 1.203125 -1.3125 2.71875l0 9.203125l2.4375 0q0.59375 0 0.59375 0.59375l0 1.96875q0 0.59375 -0.59375 0.59375l-9.078125 0q-0.609375 0 -0.609375 -0.59375l0 -1.96875q0 -0.59375 0.609375 -0.59375l2.15625 0l0 -23.40625l-2.15625 0q-0.609375 0 -0.609375 -0.59375zm31.397491 24.0l2.53125 0q0.59375 0 0.59375 0.59375l0 1.96875q0 0.59375 -0.59375 0.59375l-9.53125 0q-0.59375 0 -0.59375 -0.59375l0 -1.96875q0 -0.59375 0.59375 -0.59375q0 0 2.53125 0l0 -13.359375l-2.171875 0q-0.59375 0 -0.59375 -0.609375l0 -2.078125q0 -0.59375 0.59375 -0.59375l6.046875 0q0.59375 0 0.59375 0.59375l0 16.046875zm-4.84375 -20.203125q-0.75 -0.796875 -0.75 -2.03125q0 -1.25 0.78125 -2.0625q0.78125 -0.828125 2.078125 -0.828125q1.296875 0 2.078125 0.828125q0.78125 0.8125 0.78125 2.0625q0 1.234375 -0.796875 2.03125q-0.796875 0.796875 -2.109375 0.796875q-1.296875 0 -2.0625 -0.796875zm10.60376 9.28125q0 -2.640625 2.03125 -4.390625q2.046875 -1.765625 5.171875 -1.765625q3.125 0 5.40625 0.71875q0.5625 0.15625 0.5625 0.71875l0 4.234375q0 0.609375 -0.609375 0.609375l-2.3125 0q-0.640625 0 -0.53125 -0.609375l0.203125 -2.03125q-1.203125 -0.640625 -2.640625 -0.640625q-3.203125 0 -3.203125 2.234375q0 1.15625 1.046875 1.84375q1.046875 0.671875 2.515625 1.09375q1.484375 0.421875 2.984375 0.96875q1.5 0.53125 2.53125 1.84375q1.046875 1.296875 1.046875 3.296875q0 3.03125 -2.125 4.734375q-2.109375 1.703125 -5.953125 1.703125q-2.671875 0 -5.640625 -0.796875q-0.515625 -0.171875 -0.515625 -0.765625l0 -4.234375q0 -0.609375 0.59375 -0.609375l2.328125 0q0.59375 0 0.5625 0.609375l-0.125 2.078125q1.078125 0.796875 3.078125 0.796875q3.5625 0 3.5625 -2.515625q0 -1.28125 -1.03125 -2.015625q-1.015625 -0.75 -2.484375 -1.140625q-1.453125 -0.40625 -2.9375 -0.90625q-1.46875 -0.5 -2.5 -1.765625q-1.015625 -1.265625 -1.015625 -3.296875zm23.358704 -2.4375l0 10.078125q0 1.875 0.484375 2.71875q0.484375 0.84375 1.796875 0.84375q1.328125 0 2.5625 -0.5625q0.4375 -0.15625 0.640625 0.3125l0.71875 1.84375q0.046875 0.125 0.046875 0.34375q0 0.21875 -0.40625 0.453125q-1.921875 0.96875 -4.5625 0.96875q-3.546875 0 -4.671875 -1.84375q-0.796875 -1.203125 -0.921875 -2.328125q-0.15625 -1.515625 -0.15625 -3.1875l0 -9.640625l-2.28125 0q-0.609375 0 -0.609375 -0.609375l0 -2.078125q0 -0.59375 0.609375 -0.59375l2.28125 0l0 -5.40625q0 -0.59375 0.59375 -0.59375l3.28125 0q0.59375 0 0.59375 0.59375l0 5.40625l4.046875 0q0.59375 0 0.59375 0.59375l0 2.078125q0 0.609375 -0.59375 0.609375l-4.046875 0zm8.213135 6.921875q0 -3.0 0.90625 -5.203125q0.921875 -2.203125 2.40625 -3.328125q2.84375 -2.109375 6.15625 -2.109375q2.4375 0 4.125 0.765625q1.6875 0.75 2.625 1.75q0.9375 1.0 1.59375 2.890625q0.65625 1.875 0.65625 4.390625q0 5.359375 -2.703125 8.140625q-2.6875 2.78125 -6.890625 2.78125q-4.203125 0 -6.546875 -2.53125q-2.328125 -2.546875 -2.328125 -7.546875zm9.1875 6.796875q2.40625 0 3.5 -1.78125q1.109375 -1.78125 1.109375 -5.296875q0 -3.53125 -1.109375 -5.296875q-1.09375 -1.78125 -3.578125 -1.78125q-4.59375 0 -4.59375 6.46875q0 7.6875 4.671875 7.6875zm18.686218 -13.5625q0.6875 -1.59375 2.203125 -2.734375q1.515625 -1.140625 3.3125 -1.140625q1.796875 0 2.765625 0.3125q0.484375 0.15625 0.484375 0.71875l0 5.40625q0 0.59375 -0.609375 0.59375l-2.59375 0q-0.609375 0 -0.5625 -0.59375l0.15625 -2.328125q-0.203125 -0.03125 -0.671875 -0.03125q-1.84375 0 -3.046875 1.5q-1.203125 1.5 -1.203125 4.015625l0 7.484375l4.40625 0q0.59375 0 0.59375 0.59375l0 1.96875q0 0.59375 -0.59375 0.59375l-11.0 0q-0.59375 0 -0.59375 -0.59375l0 -1.96875q0 -0.59375 0.59375 -0.59375l2.125 0l0 -13.359375l-2.171875 0q-0.59375 0 -0.59375 -0.609375l0 -2.078125q0 -0.59375 0.59375 -0.59375l5.28125 0q0.5625 0 0.6875 0.59375l0.4375 2.84375zm18.274353 13.203125l2.53125 0q0.59375 0 0.59375 0.59375l0 1.96875q0 0.59375 -0.59375 0.59375l-9.53125 0q-0.59375 0 -0.59375 -0.59375l0 -1.96875q0 -0.59375 0.59375 -0.59375q0 0 2.53125 0l0 -13.359375l-2.171875 0q-0.59375 0 -0.59375 -0.609375l0 -2.078125q0 -0.59375 0.59375 -0.59375l6.046875 0q0.59375 0 0.59375 0.59375l0 16.046875zm-4.84375 -20.203125q-0.75 -0.796875 -0.75 -2.03125q0 -1.25 0.78125 -2.0625q0.78125 -0.828125 2.078125 -0.828125q1.296875 0 2.078125 0.828125q0.78125 0.8125 0.78125 2.0625q0 1.234375 -0.796875 2.03125q-0.796875 0.796875 -2.109375 0.796875q-1.296875 0 -2.0625 -0.796875zm21.494385 11.484375l0 -1.40625q0 -2.84375 -1.609375 -3.5625q-0.75 -0.3125 -2.203125 -0.3125q-2.71875 0 -3.265625 2.5625q-0.125 0.59375 -0.609375 0.59375l-2.5625 0q-0.640625 0 -0.5625 -0.59375q0.171875 -2.921875 2.359375 -4.28125q2.203125 -1.359375 5.609375 -1.359375q7.15625 0 7.15625 6.546875l0 10.53125l1.71875 0q0.609375 0 0.609375 0.59375l0 1.96875q0 0.59375 -0.609375 0.59375l-4.71875 0q-0.515625 0 -0.59375 -0.59375l-0.28125 -1.84375q-2.15625 2.921875 -6.25 2.921875q-2.546875 0 -4.234375 -1.34375q-1.671875 -1.34375 -1.671875 -4.296875q0 -3.890625 3.234375 -5.328125q2.671875 -1.234375 6.40625 -1.359375q0.75 0 2.078125 -0.03125zm0.078125 5.828125l0 -3.078125q-3.84375 0 -4.734375 0.359375q-0.875 0.359375 -1.546875 0.71875q-1.28125 0.6875 -1.28125 2.484375q0 2.765625 3.15625 2.765625q2.078125 0 3.234375 -0.984375q1.171875 -0.984375 1.171875 -2.265625zm8.756836 -11.03125l0 -2.125q0 -0.59375 0.59375 -0.59375l5.453125 0q0.515625 0 0.640625 0.59375l0.359375 2.328125q2.234375 -3.359375 6.390625 -3.359375q6.203125 0 6.203125 6.796875l0 10.28125l2.3125 0q0.609375 0 0.609375 0.59375l0 1.96875q0 0.59375 -0.609375 0.59375l-8.71875 0q-0.59375 0 -0.59375 -0.59375l0 -1.96875q0 -0.59375 0.59375 -0.59375l1.921875 0l0 -8.28125q0 -2.515625 -0.640625 -3.671875q-0.640625 -1.171875 -2.640625 -1.171875q-2.0 0 -3.328125 1.203125q-1.3125 1.203125 -1.3125 2.71875l0 9.203125l2.484375 0q0.59375 0 0.59375 0.59375l0 1.96875q0 0.59375 -0.59375 0.59375l-9.078125 0q-0.59375 0 -0.59375 -0.59375l0 -1.96875q0 -0.59375 0.59375 -0.59375l2.125 0l0 -13.359375l-2.171875 0q-0.59375 0 -0.59375 -0.5625zm30.394348 17.046875q-0.796875 0.796875 -2.203125 0.796875q-1.390625 0 -2.1875 -0.78125q-0.796875 -0.78125 -0.796875 -1.953125q0 -1.1875 0.828125 -1.984375q0.84375 -0.8125 2.15625 -0.8125q1.328125 0 2.171875 0.765625q0.84375 0.765625 0.84375 1.96875q0 1.1875 -0.8125 2.0zm5.331848 -9.5625q0 -3.0 0.90625 -5.203125q0.921875 -2.203125 2.40625 -3.328125q2.84375 -2.109375 6.15625 -2.109375q2.4375 0 4.125 0.765625q1.6875 0.75 2.625 1.75q0.9375 1.0 1.59375 2.890625q0.65625 1.875 0.65625 4.390625q0 5.359375 -2.703125 8.140625q-2.6875 2.78125 -6.890625 2.78125q-4.203125 0 -6.546875 -2.53125q-2.328125 -2.546875 -2.328125 -7.546875zm9.1875 6.796875q2.40625 0 3.5 -1.78125q1.109375 -1.78125 1.109375 -5.296875q0 -3.53125 -1.109375 -5.296875q-1.09375 -1.78125 -3.578125 -1.78125q-4.59375 0 -4.59375 6.46875q0 7.6875 4.671875 7.6875zm18.686218 -13.5625q0.6875 -1.59375 2.203125 -2.734375q1.515625 -1.140625 3.3125 -1.140625q1.796875 0 2.765625 0.3125q0.484375 0.15625 0.484375 0.71875l0 5.40625q0 0.59375 -0.609375 0.59375l-2.59375 0q-0.609375 0 -0.5625 -0.59375l0.15625 -2.328125q-0.203125 -0.03125 -0.671875 -0.03125q-1.84375 0 -3.046875 1.5q-1.203125 1.5 -1.203125 4.015625l0 7.484375l4.40625 0q0.59375 0 0.59375 0.59375l0 1.96875q0 0.59375 -0.59375 0.59375l-11.0 0q-0.59375 0 -0.59375 -0.59375l0 -1.96875q0 -0.59375 0.59375 -0.59375l2.125 0l0 -13.359375l-2.171875 0q-0.59375 0 -0.59375 -0.609375l0 -2.078125q0 -0.59375 0.59375 -0.59375l5.28125 0q0.5625 0 0.6875 0.59375l0.4375 2.84375zm29.633728 -0.15625l0 14.203125q0 2.546875 -0.1875 4.75q-0.328125 3.40625 -2.515625 5.28125q-2.171875 1.875 -6.171875 1.875q-4.0 0 -6.71875 -1.1875q-0.484375 -0.203125 -0.3125 -0.8125l0.71875 -2.109375q0.15625 -0.5625 0.796875 -0.328125q2.4375 1.0 4.9375 1.0q2.5 0 3.734375 -1.203125q1.25 -1.1875 1.25 -4.234375l0 -3.125q-1.765625 2.890625 -5.6875 2.890625q-3.921875 0 -5.984375 -2.515625q-2.046875 -2.53125 -2.046875 -7.671875q0 -5.140625 2.40625 -7.828125q2.421875 -2.703125 6.078125 -2.703125q3.671875 0 5.90625 2.59375l0.40625 -1.5625q0.203125 -0.59375 0.71875 -0.59375l4.875 0q0.609375 0 0.609375 0.59375l0 2.078125q0 0.609375 -0.609375 0.609375l-2.203125 0zm-4.46875 9.03125l0 -7.109375q-0.171875 -0.25 -0.515625 -0.609375q-0.328125 -0.359375 -1.46875 -0.9375q-1.140625 -0.578125 -2.453125 -0.578125q-2.125 0 -3.453125 1.578125q-1.3125 1.578125 -1.3125 5.0625q0 3.484375 0.953125 5.3125q0.96875 1.8125 3.71875 1.8125q1.765625 0 3.140625 -1.234375q1.390625 -1.25 1.390625 -3.296875zm23.471863 -22.3125q0.609375 0 0.609375 0.3125q0 0.171875 -0.09375 0.40625l-11.796875 32.390625q-0.15625 0.453125 -0.34375 0.59375q-0.171875 0.140625 -0.65625 0.140625l-1.5625 0q-0.59375 0 -0.59375 -0.328125q0 -0.15625 0.078125 -0.40625l11.765625 -32.390625q0.15625 -0.4375 0.328125 -0.578125q0.1875 -0.140625 0.671875 -0.140625l1.59375 0zm12.756836 30.28125q-4.75 0 -6.96875 -2.78125q-2.21875 -2.78125 -2.21875 -7.359375q0 -4.578125 2.359375 -7.578125q2.359375 -3.0 6.796875 -3.0q2.203125 0 3.78125 0.828125q1.578125 0.8125 2.421875 2.203125q1.59375 2.71875 1.59375 6.28125q0 1.6875 -0.15625 1.84375q-0.15625 0.15625 -0.609375 0.15625l-11.75 0q0.203125 2.875 1.421875 4.46875q1.21875 1.578125 4.21875 1.578125q2.203125 0 4.515625 -1.046875q0.5625 -0.28125 0.796875 0.328125l0.765625 1.828125q0.203125 0.484375 -0.359375 0.8125q-2.640625 1.4375 -6.609375 1.4375zm-4.75 -12.359375l8.3125 0q0.078125 -5.0 -3.921875 -5.0q-2.359375 0 -3.34375 1.5q-0.96875 1.5 -1.046875 3.5zm14.716248 -5.203125l0 -2.125q0 -0.59375 0.59375 -0.59375l5.453125 0q0.515625 0 0.640625 0.59375l0.359375 2.328125q2.234375 -3.359375 6.390625 -3.359375q6.203125 0 6.203125 6.796875l0 10.28125l2.3125 0q0.609375 0 0.609375 0.59375l0 1.96875q0 0.59375 -0.609375 0.59375l-8.71875 0q-0.59375 0 -0.59375 -0.59375l0 -1.96875q0 -0.59375 0.59375 -0.59375l1.921875 0l0 -8.28125q0 -2.515625 -0.640625 -3.671875q-0.640625 -1.171875 -2.640625 -1.171875q-2.0 0 -3.328125 1.203125q-1.3125 1.203125 -1.3125 2.71875l0 9.203125l2.484375 0q0.59375 0 0.59375 0.59375l0 1.96875q0 0.59375 -0.59375 0.59375l-9.078125 0q-0.59375 0 -0.59375 -0.59375l0 -1.96875q0 -0.59375 0.59375 -0.59375l2.125 0l0 -13.359375l-2.171875 0q-0.59375 0 -0.59375 -0.5625z" fill-rule="nonzero"/></g></svg>