<?xml version="1.0" encoding="utf-8"?>
<!-- Generator: Adobe Illustrator 25.1.0, SVG Export Plug-In . SVG Version: 6.00 Build 0)  -->
<svg version="1.1" id="Layer_1" xmlns="http://www.w3.org/2000/svg" xmlns:xlink="http://www.w3.org/1999/xlink" x="0px" y="0px"
	 viewBox="0 0 900 900" style="enable-background:new 0 0 900 900;" xml:space="preserve">
<style type="text/css">
	.st0{clip-path:url(#SVGID_2_);}
	.st1{fill-rule:evenodd;clip-rule:evenodd;fill-opacity:0;}
	.st2{fill-rule:evenodd;clip-rule:evenodd;fill:#D5B563;}
	.st3{fill:#FFFFFF;}
	.st4{font-family:'CreteRound-Regular';}
	.st5{font-size:155.9376px;}
</style>
<g>
	<defs>
		<rect id="SVGID_1_" width="900" height="900"/>
	</defs>
	<clipPath id="SVGID_2_">
		<use xlink:href="#SVGID_1_"  style="overflow:visible;"/>
	</clipPath>
	<g class="st0">
		<path class="st1" d="M0,0h900v900H0V0z"/>
		<path class="st2" d="M0,0h900v900H0V0z"/>
		<path class="st3" d="M177.2,616.2v19.2c0,2.9-0.5,4.9-1.6,6c-1.1,1.1-3.1,1.6-6,1.6h-58c-2.9,0-4.9-0.5-6-1.6
			c-1.1-1.1-1.6-3.1-1.6-6V292.2c0-2.9,0.5-4.9,1.6-6c1.1-1.1,3.1-1.6,6-1.6h58c2.9,0,4.9,0.5,6,1.6c1.1,1.1,1.6,3.1,1.6,6v20.4
			c0,2.9-0.5,4.9-1.6,6c-1.1,1.1-3.1,1.5-6,1.2l-27.2-2V611l27.2-2c2.9-0.3,4.9,0.1,6,1.2C176.7,611.3,177.2,613.3,177.2,616.2z
			 M204.4,577v-19.6c0-4,2-6,6-6h20.8v-208h-20.8c-4,0-6-2-6-6v-20c0-4,2-6,6-6c34.1-1.6,62-2.4,83.6-2.4c70.9,0,106.4,26,106.4,78
			c0,26.9-8.7,48.3-26,64s-40.9,23.6-70.8,23.6c-11.7,0-20.9-0.4-27.6-1.2v78h33.2c4,0,6,2,6,6V577c0,4-2,6-6,6h-98.8
			C206.4,583,204.4,581,204.4,577z M276,342.2v100.4c2.4,0.3,8.5,0.4,18.4,0.4c40,0,60-17.7,60-53.2c0-12.8-3.3-22.9-9.8-30.2
			s-14.1-12.1-22.8-14.2c-8.7-2.1-19.1-3.2-31.4-3.2H276z M502.4,343.8v82.4h121.2v-82.4h-21.2c-4,0-6-2-6-6v-20.4c0-4,2-6,6-6h87.2
			c4,0,6,2,6,6v20.4c0,4-2,6-6,6h-21.2v207.6h21.2c4,0,6,2,6,6V577c0,4-2,6-6,6h-87.2c-4,0-6-2-6-6v-19.6c0-4,2-6,6-6h21.2v-90.8
			H502.4v90.8h21.2c4,0,6,2,6,6V577c0,4-2,6-6,6h-87.2c-4,0-6-2-6-6v-19.6c0-4,2-6,6-6h21.2V343.8h-21.2c-4,0-6-2-6-6v-20.4
			c0-4,2-6,6-6h87.2c4,0,6,2,6,6v20.4c0,4-2,6-6,6H502.4z M722.8,635.4v-19.2c0-2.9,0.5-4.9,1.6-6c1.1-1.1,3.1-1.5,6-1.2l27.2,2
			V317.8l-27.2,2c-2.9,0.3-4.9-0.1-6-1.2c-1.1-1.1-1.6-3.1-1.6-6v-20.4c0-2.9,0.5-4.9,1.6-6c1.1-1.1,3.1-1.6,6-1.6h58
			c2.9,0,4.9,0.5,6,1.6c1.1,1.1,1.6,3.1,1.6,6v343.2c0,2.9-0.5,4.9-1.6,6c-1.1,1.1-3.1,1.6-6,1.6h-58c-2.9,0-4.9-0.5-6-1.6
			C723.3,640.3,722.8,638.3,722.8,635.4z"/>
		<path class="st1" d="M263.7,263.8h372.5v146.9H263.7V263.8z"/>
	</g>
</g>
<text transform="matrix(1 0 0 1 341.0464 582.9082)" class="st3 st4 st5">t</text>
</svg>
