<?xml version="1.0" encoding="utf-8"?>
<!-- Generator: Adobe Illustrator 22.0.1, SVG Export Plug-In . SVG Version: 6.00 Build 0)  -->
<svg version="1.1" id="Layer_1" xmlns="http://www.w3.org/2000/svg" xmlns:xlink="http://www.w3.org/1999/xlink" x="0px" y="0px"
	 viewBox="0 0 900 900" style="enable-background:new 0 0 900 900;" xml:space="preserve">
<style type="text/css">
	.st0{fill:#886814;}
	.st1{fill:#FFFFFF;}
	.st2{enable-background:new    ;}
</style>
<g>
	<g>
		<g>
			<path class="st0" d="M0,0h900v900H0V0z"/>
			<path class="st1" d="M177.2,616.2v19.2c0,2.9-0.5,4.9-1.6,6s-3.1,1.6-6,1.6h-58c-2.9,0-4.9-0.5-6-1.6s-1.6-3.1-1.6-6V292.2
				c0-2.9,0.5-4.9,1.6-6s3.1-1.6,6-1.6h58c2.9,0,4.9,0.5,6,1.6s1.6,3.1,1.6,6v20.4c0,2.9-0.5,4.9-1.6,6s-3.1,1.5-6,1.2l-27.2-2V611
				l27.2-2c2.9-0.3,4.9,0.1,6,1.2C176.7,611.3,177.2,613.3,177.2,616.2z M204.4,577v-19.6c0-4,2-6,6-6h20.8v-208h-20.8c-4,0-6-2-6-6
				v-20c0-4,2-6,6-6c34.1-1.6,62-2.4,83.6-2.4c70.9,0,106.4,26,106.4,78c0,26.9-8.7,48.3-26,64s-40.9,23.6-70.8,23.6
				c-11.7,0-20.9-0.4-27.6-1.2v78h33.2c4,0,6,2,6,6V577c0,4-2,6-6,6h-98.8C206.4,583,204.4,581,204.4,577z M276,342.2v100.4
				c2.4,0.3,8.5,0.4,18.4,0.4c40,0,60-17.7,60-53.2c0-12.8-3.3-22.9-9.8-30.2s-14.1-12.1-22.8-14.2c-8.7-2.1-19.1-3.2-31.4-3.2
				L276,342.2L276,342.2z M502.4,343.8v82.4h121.2v-82.4h-21.2c-4,0-6-2-6-6v-20.4c0-4,2-6,6-6h87.2c4,0,6,2,6,6v20.4c0,4-2,6-6,6
				h-21.2v207.6h21.2c4,0,6,2,6,6V577c0,4-2,6-6,6h-87.2c-4,0-6-2-6-6v-19.6c0-4,2-6,6-6h21.2v-90.8H502.4v90.8h21.2c4,0,6,2,6,6
				V577c0,4-2,6-6,6h-87.2c-4,0-6-2-6-6v-19.6c0-4,2-6,6-6h21.2V343.8h-21.2c-4,0-6-2-6-6v-20.4c0-4,2-6,6-6h87.2c4,0,6,2,6,6v20.4
				c0,4-2,6-6,6H502.4z M722.8,635.4v-19.2c0-2.9,0.5-4.9,1.6-6s3.1-1.5,6-1.2l27.2,2V317.8l-27.2,2c-2.9,0.3-4.9-0.1-6-1.2
				s-1.6-3.1-1.6-6v-20.4c0-2.9,0.5-4.9,1.6-6s3.1-1.6,6-1.6h58c2.9,0,4.9,0.5,6,1.6s1.6,3.1,1.6,6v343.2c0,2.9-0.5,4.9-1.6,6
				s-3.1,1.6-6,1.6h-58c-2.9,0-4.9-0.5-6-1.6C723.3,640.3,722.8,638.3,722.8,635.4z"/>
		</g>
	</g>
</g>
<g class="st2">
	<path class="st1" d="M372.1,518.5v39.3c0,4.9,0.6,8.4,1.9,10.6c1.2,2.2,3.6,3.3,7,3.3s6.8-0.7,10-2.2c1.1-0.4,2,0,2.5,1.2l2.8,7.2
		c0.1,0.3,0.2,0.8,0.2,1.3c0,0.6-0.5,1.2-1.6,1.8c-5,2.5-10.9,3.7-17.8,3.7c-9.3,0-15.3-2.4-18.2-7.2c-2.1-3.1-3.3-6.1-3.6-9
		c-0.4-3.9-0.6-8.1-0.6-12.5v-37.6h-8.9c-1.6,0-2.3-0.8-2.3-2.3v-8.1c0-1.6,0.8-2.3,2.3-2.3h8.9v-21.1c0-1.6,0.8-2.3,2.3-2.3h12.8
		c1.6,0,2.3,0.8,2.3,2.3v21.1h15.7c1.6,0,2.3,0.8,2.3,2.3v8.1c0,1.6-0.8,2.3-2.3,2.3H372.1z"/>
</g>
</svg>
