<svg version="1.1" viewBox="0.0 0.0 900.0 900.0" fill="none" stroke="none" stroke-linecap="square" stroke-miterlimit="10" xmlns:xlink="http://www.w3.org/1999/xlink" xmlns="http://www.w3.org/2000/svg"><clipPath id="p.0"><path d="m0 0l900.0 0l0 900.0l-900.0 0l0 -900.0z" clip-rule="nonzero"/></clipPath><g clip-path="url(#p.0)"><path fill="#000000" fill-opacity="0.0" d="m0 0l900.0 0l0 900.0l-900.0 0z" fill-rule="evenodd"/><path fill="#535d7f" d="m0 0l900.0 0l0 900.0l-900.0 0z" fill-rule="evenodd"/><path fill="#ffffff" d="m177.19363 616.2031l0 19.203125q0 4.390625 -1.59375 5.984375q-1.59375 1.609375 -6.0 1.609375l-58.0 0q-4.40625 0 -6.0 -1.609375q-1.59375 -1.59375 -1.59375 -5.984375l0 -343.20312q0 -4.40625 1.59375 -6.0q1.59375 -1.609375 6.0 -1.609375l58.0 0q4.40625 0 6.0 1.609375q1.59375 1.59375 1.59375 6.0l0 20.390625q0 4.40625 -1.59375 6.015625q-1.59375 1.59375 -6.0 1.1875l-27.203125 -2.0l0 293.20312l27.203125 -2.0q4.40625 -0.40625 6.0 1.1875q1.59375 1.609375 1.59375 6.015625zm27.206284 -39.203125l0 -19.59375q0 -6.0 6.0 -6.0l20.796875 0l0 -208.0l-20.796875 0q-6.0 0 -6.0 -6.0l0 -20.0q0 -6.0 6.0 -6.0q51.20311 -2.40625 83.593735 -2.40625q106.40625 0 106.40625 78.0q0 40.40625 -26.0 64.0q-26.0 23.59375 -70.796875 23.59375q-17.609375 0 -27.609375 -1.1875l0 78.0l33.203125 0q6.0 0 6.0 6.0l0 19.59375q0 6.0 -6.0 6.0l-98.79686 0q-6.0 0 -6.0 -6.0zm71.593735 -234.79688l0 100.390625q3.609375 0.40625 18.40625 0.40625q60.0 0 60.0 -53.203125q0 -19.203125 -9.796875 -30.203125q-9.796875 -11.0 -22.796875 -14.1875q-13.0 -3.203125 -31.40625 -3.203125l-14.40625 0zm226.40634 1.59375l0 82.40625l121.203156 0l0 -82.40625l-21.203125 0q-6.0 0 -6.0 -6.0l0 -20.390625q0 -6.0 6.0 -6.0l87.203125 0q6.0 0 6.0 6.0l0 20.390625q0 6.0 -6.0 6.0l-21.203125 0l0 207.60938l21.203125 0q6.0 0 6.0 6.0l0 19.59375q0 6.0 -6.0 6.0l-87.203125 0q-6.0 0 -6.0 -6.0l0 -19.59375q0 -6.0 6.0 -6.0l21.203125 0l0 -90.8125l-121.203156 0l0 90.8125l21.203156 0q6.0 0 6.0 6.0l0 19.59375q0 6.0 -6.0 6.0l-87.203156 0q-6.0 0 -6.0 -6.0l0 -19.59375q0 -6.0 6.0 -6.0l21.203125 0l0 -207.60938l-21.203125 0q-6.0 0 -6.0 -6.0l0 -20.390625q0 -6.0 6.0 -6.0l87.203156 0q6.0 0 6.0 6.0l0 20.390625q0 6.0 -6.0 6.0l-21.203156 0zm220.40323 291.60938l0 -19.203125q0 -4.40625 1.59375 -6.015625q1.609375 -1.59375 6.0 -1.1875l27.203125 2.0l0 -293.20312l-27.203125 2.0q-4.390625 0.40625 -6.0 -1.1875q-1.59375 -1.609375 -1.59375 -6.015625l0 -20.390625q0 -4.40625 1.59375 -6.0q1.609375 -1.609375 6.0 -1.609375l58.0 0q4.40625 0 6.0 1.609375q1.609375 1.59375 1.609375 6.0l0 343.20312q0 4.390625 -1.609375 5.984375q-1.59375 1.609375 -6.0 1.609375l-58.0 0q-4.390625 0 -6.0 -1.609375q-1.59375 -1.59375 -1.59375 -5.984375z" fill-rule="nonzero"/><path fill="#000000" fill-opacity="0.0" d="m217.65355 83.39895l464.69287 0l0 146.86615l-464.69287 0z" fill-rule="evenodd"/><path fill="#ffffff" d="m318.80792 225.62888q0 -38.390625 17.328125 -55.71875q17.328125 -17.34375 37.59375 -17.34375q20.265625 0 71.734375 14.671875q51.46872 14.65625 66.9375 14.65625q15.46875 0 22.125 -4.0q6.671875 -4.0 6.671875 -14.390625q0 -10.40625 8.0 -10.40625l19.734375 0q8.0 0 8.0 10.140625q0 36.265625 -16.0 53.328125q-16.0 17.0625 -41.078125 17.0625q-25.06253 0 -77.0625 -14.390625q-51.984375 -14.40625 -63.984375 -14.40625q-12.0 0 -16.546875 5.078125q-4.53125 5.0625 -4.53125 17.328125q0 6.921875 -7.46875 6.921875l-23.453125 0q-8.0 0 -8.0 -8.53125z" fill-rule="nonzero"/></g></svg>