<?xml version="1.0" encoding="UTF-8" standalone="no"?>
<!DOCTYPE svg PUBLIC "-//W3C//DTD SVG 1.1//EN"
 "http://www.w3.org/Graphics/SVG/1.1/DTD/svg11.dtd">
<!-- Generated by graphviz version 2.38.0 (20140413.2041)
 -->
<!-- Title: %3 Pages: 1 -->
<svg width="438pt" height="212pt"
 viewBox="0.00 0.00 437.70 212.00" xmlns="http://www.w3.org/2000/svg" xmlns:xlink="http://www.w3.org/1999/xlink">
<g id="graph0" class="graph" transform="scale(1 1) rotate(0) translate(4 208)">
<title>%3</title>
<polygon fill="white" stroke="none" points="-4,4 -4,-208 433.703,-208 433.703,4 -4,4"/>
<!-- nw -->
<g id="node1" class="node"><title>nw</title>
<ellipse fill="none" stroke="red" cx="132" cy="-186" rx="49.2014" ry="18"/>
<text text-anchor="middle" x="132" y="-183" font-family="Helvetica,sans-Serif" font-size="10.00">The Nightwatch</text>
</g>
<!-- rr -->
<g id="node2" class="node"><title>rr</title>
<ellipse fill="none" stroke="red" cx="132" cy="-98" rx="60.0217" ry="18"/>
<text text-anchor="middle" x="132" y="-95" font-family="Helvetica,sans-Serif" font-size="10.00">Rembrandt van Rijn</text>
</g>
<!-- nw&#45;&gt;rr -->
<g id="edge1" class="edge"><title>nw&#45;&gt;rr</title>
<path fill="none" stroke="orange" d="M132,-167.597C132,-155.746 132,-139.817 132,-126.292"/>
<polygon fill="orange" stroke="orange" points="135.5,-126.084 132,-116.084 128.5,-126.084 135.5,-126.084"/>
<text text-anchor="middle" x="150.678" y="-143.6" font-family="Helvetica,sans-Serif" font-size="8.00">was</text>
<text text-anchor="middle" x="150.678" y="-135.6" font-family="Helvetica,sans-Serif" font-size="8.00">created by</text>
</g>
<!-- oil -->
<g id="node5" class="node"><title>oil</title>
<ellipse fill="none" stroke="gray" cx="253" cy="-98" rx="42.8742" ry="18"/>
<text text-anchor="middle" x="253" y="-95" font-family="Helvetica,sans-Serif" font-size="10.00">oil on canvas</text>
</g>
<!-- nw&#45;&gt;oil -->
<g id="edge3" class="edge"><title>nw&#45;&gt;oil</title>
<path fill="none" stroke="gray" d="M153.632,-169.625C173.196,-155.72 202.162,-135.133 223.779,-119.768"/>
<polygon fill="gray" stroke="gray" points="225.837,-122.6 231.96,-113.954 221.781,-116.894 225.837,-122.6"/>
<text text-anchor="middle" x="225.787" y="-139.6" font-family="Helvetica,sans-Serif" font-size="8.00">has medium</text>
</g>
<!-- nwd -->
<g id="node7" class="node"><title>nwd</title>
<ellipse fill="none" stroke="gray" cx="27" cy="-98" rx="27" ry="18"/>
<text text-anchor="middle" x="27" y="-95" font-family="Helvetica,sans-Serif" font-size="10.00">1642</text>
</g>
<!-- nw&#45;&gt;nwd -->
<g id="edge2" class="edge"><title>nw&#45;&gt;nwd</title>
<path fill="none" stroke="gray" d="M112.741,-169.226C95.413,-155.034 69.877,-134.118 51.1799,-118.804"/>
<polygon fill="gray" stroke="gray" points="53.3315,-116.043 43.3774,-112.414 48.896,-121.458 53.3315,-116.043"/>
<text text-anchor="middle" x="106.566" y="-143.6" font-family="Helvetica,sans-Serif" font-size="8.00">was</text>
<text text-anchor="middle" x="106.566" y="-135.6" font-family="Helvetica,sans-Serif" font-size="8.00">created in</text>
</g>
<!-- d -->
<g id="node6" class="node"><title>d</title>
<ellipse fill="none" stroke="orange" cx="263" cy="-18" rx="27" ry="18"/>
<text text-anchor="middle" x="263" y="-15" font-family="Helvetica,sans-Serif" font-size="10.00">Dutch</text>
</g>
<!-- rr&#45;&gt;d -->
<g id="edge5" class="edge"><title>rr&#45;&gt;d</title>
<path fill="none" stroke="orange" d="M157.881,-81.5897C180.033,-68.4005 211.867,-49.4456 234.691,-35.8559"/>
<polygon fill="orange" stroke="orange" points="236.761,-38.6968 243.563,-30.5735 233.18,-32.6822 236.761,-38.6968"/>
<text text-anchor="middle" x="227.572" y="-55.6" font-family="Helvetica,sans-Serif" font-size="8.00">has nationality</text>
</g>
<!-- rrb -->
<g id="node8" class="node"><title>rrb</title>
<ellipse fill="none" stroke="gray" cx="132" cy="-18" rx="27" ry="18"/>
<text text-anchor="middle" x="132" y="-15" font-family="Helvetica,sans-Serif" font-size="10.00">1606</text>
</g>
<!-- rr&#45;&gt;rrb -->
<g id="edge4" class="edge"><title>rr&#45;&gt;rrb</title>
<path fill="none" stroke="gray" d="M132,-79.6893C132,-69.8938 132,-57.4218 132,-46.335"/>
<polygon fill="gray" stroke="gray" points="135.5,-46.2623 132,-36.2623 128.5,-46.2624 135.5,-46.2623"/>
<text text-anchor="middle" x="152.455" y="-55.6" font-family="Helvetica,sans-Serif" font-size="8.00">was born in</text>
</g>
<!-- jv -->
<g id="node3" class="node"><title>jv</title>
<ellipse fill="none" stroke="red" cx="372" cy="-98" rx="57.9076" ry="18"/>
<text text-anchor="middle" x="372" y="-95" font-family="Helvetica,sans-Serif" font-size="10.00">Johannes Vermeer</text>
</g>
<!-- jv&#45;&gt;d -->
<g id="edge6" class="edge"><title>jv&#45;&gt;d</title>
<path fill="none" stroke="orange" d="M349.942,-81.2155C332.328,-68.6108 307.605,-50.9191 289.023,-37.6222"/>
<polygon fill="orange" stroke="orange" points="290.879,-34.6462 280.71,-31.673 286.805,-40.3388 290.879,-34.6462"/>
<text text-anchor="middle" x="345.572" y="-55.6" font-family="Helvetica,sans-Serif" font-size="8.00">has nationality</text>
</g>
<!-- wb -->
<g id="node4" class="node"><title>wb</title>
<ellipse fill="none" stroke="red" cx="277" cy="-186" rx="68.3645" ry="18"/>
<text text-anchor="middle" x="277" y="-183" font-family="Helvetica,sans-Serif" font-size="10.00">Woman with a Balance</text>
</g>
<!-- wb&#45;&gt;jv -->
<g id="edge7" class="edge"><title>wb&#45;&gt;jv</title>
<path fill="none" stroke="orange" d="M295.278,-168.646C301.824,-162.776 309.251,-156.101 316,-150 325.983,-140.975 336.934,-131.015 346.484,-122.31"/>
<polygon fill="orange" stroke="orange" points="349.095,-124.666 354.124,-115.341 344.377,-119.494 349.095,-124.666"/>
<text text-anchor="middle" x="350.678" y="-143.6" font-family="Helvetica,sans-Serif" font-size="8.00">was</text>
<text text-anchor="middle" x="350.678" y="-135.6" font-family="Helvetica,sans-Serif" font-size="8.00">created by</text>
</g>
<!-- wb&#45;&gt;oil -->
<g id="edge8" class="edge"><title>wb&#45;&gt;oil</title>
<path fill="none" stroke="gray" d="M272.258,-168.009C268.905,-155.995 264.342,-139.641 260.498,-125.869"/>
<polygon fill="gray" stroke="gray" points="263.791,-124.647 257.732,-115.956 257.049,-126.528 263.791,-124.647"/>
<text text-anchor="middle" x="289.787" y="-139.6" font-family="Helvetica,sans-Serif" font-size="8.00">has medium</text>
</g>
</g>
</svg>
