<?xml version="1.0" encoding="UTF-8" standalone="no"?>
<!DOCTYPE svg PUBLIC "-//W3C//DTD SVG 1.1//EN"
 "http://www.w3.org/Graphics/SVG/1.1/DTD/svg11.dtd">
<!-- Generated by graphviz version 2.38.0 (20140413.2041)
 -->
<!-- Title: %3 Pages: 1 -->
<svg width="367pt" height="364pt"
 viewBox="0.00 0.00 367.21 364.00" xmlns="http://www.w3.org/2000/svg" xmlns:xlink="http://www.w3.org/1999/xlink">
<g id="graph0" class="graph" transform="scale(1 1) rotate(0) translate(4 360)">
<title>%3</title>
<polygon fill="white" stroke="none" points="-4,4 -4,-360 363.215,-360 363.215,4 -4,4"/>
<!-- obj -->
<g id="node1" class="node"><title>obj</title>
<ellipse fill="none" stroke="gray" cx="148.735" cy="-338" rx="148.97" ry="18"/>
<text text-anchor="middle" x="148.735" y="-335" font-family="Helvetica,sans-Serif" font-size="10.00">http://collection.britishmuseum.org/id/object/PPA82633</text>
</g>
<!-- object_type -->
<g id="node2" class="node"><title>object_type</title>
<ellipse fill="none" stroke="gray" cx="51.7348" cy="-258" rx="38.5366" ry="18"/>
<text text-anchor="middle" x="51.7348" y="-255" font-family="Helvetica,sans-Serif" font-size="10.00">object_type</text>
</g>
<!-- obj&#45;&gt;object_type -->
<g id="edge1" class="edge"><title>obj&#45;&gt;object_type</title>
<path fill="none" stroke="gray" d="M98.3951,-320.855C88.4182,-315.964 78.6502,-309.764 70.9106,-302 66.4004,-297.476 62.8568,-291.706 60.1099,-285.873"/>
<polygon fill="gray" stroke="gray" points="63.1969,-284.17 56.2095,-276.205 56.7054,-286.789 63.1969,-284.17"/>
<text text-anchor="middle" x="108.647" y="-295.6" font-family="Helvetica,sans-Serif" font-size="8.00">bmo:PX_object_type</text>
</g>
<!-- production -->
<g id="node4" class="node"><title>production</title>
<ellipse fill="none" stroke="gray" cx="148.735" cy="-258" rx="36.3999" ry="18"/>
<text text-anchor="middle" x="148.735" y="-255" font-family="Helvetica,sans-Serif" font-size="10.00">production</text>
</g>
<!-- obj&#45;&gt;production -->
<g id="edge3" class="edge"><title>obj&#45;&gt;production</title>
<path fill="none" stroke="gray" d="M148.735,-319.689C148.735,-309.894 148.735,-297.422 148.735,-286.335"/>
<polygon fill="gray" stroke="gray" points="152.235,-286.262 148.735,-276.262 145.235,-286.262 152.235,-286.262"/>
<text text-anchor="middle" x="203.657" y="-295.6" font-family="Helvetica,sans-Serif" font-size="8.00">ecrm:P108i_was_produced_by</text>
</g>
<!-- other -->
<g id="node8" class="node"><title>other</title>
<text text-anchor="middle" x="281.735" y="-255" font-family="Helvetica,sans-Serif" font-size="10.00">Other top&#45;level object attributes</text>
</g>
<!-- obj&#45;&gt;other -->
<g id="edge7" class="edge"><title>obj&#45;&gt;other</title>
<path fill="none" stroke="gray" d="M223.709,-322.337C236.677,-317.399 249.318,-310.804 259.735,-302 264.947,-297.595 269.068,-291.646 272.265,-285.579"/>
<polygon fill="gray" stroke="gray" points="275.598,-286.706 276.554,-276.154 269.227,-283.807 275.598,-286.706"/>
<text text-anchor="middle" x="271.069" y="-295.6" font-family="Helvetica,sans-Serif" font-size="8.00">...</text>
</g>
<!-- print -->
<g id="node3" class="node"><title>print</title>
<ellipse fill="none" stroke="gray" cx="51.7348" cy="-178" rx="27" ry="18"/>
<text text-anchor="middle" x="51.7348" y="-175" font-family="Helvetica,sans-Serif" font-size="10.00">print</text>
</g>
<!-- object_type&#45;&gt;print -->
<g id="edge2" class="edge"><title>object_type&#45;&gt;print</title>
<path fill="none" stroke="gray" d="M51.7348,-239.689C51.7348,-229.894 51.7348,-217.422 51.7348,-206.335"/>
<polygon fill="gray" stroke="gray" points="55.2349,-206.262 51.7348,-196.262 48.2349,-206.262 55.2349,-206.262"/>
<text text-anchor="middle" x="77.7504" y="-215.6" font-family="Helvetica,sans-Serif" font-size="8.00">skos:prefLabel</text>
</g>
<!-- date -->
<g id="node5" class="node"><title>date</title>
<ellipse fill="none" stroke="gray" cx="134.735" cy="-178" rx="27" ry="18"/>
<text text-anchor="middle" x="134.735" y="-175" font-family="Helvetica,sans-Serif" font-size="10.00">date</text>
</g>
<!-- production&#45;&gt;date -->
<g id="edge4" class="edge"><title>production&#45;&gt;date</title>
<path fill="none" stroke="gray" d="M143.042,-240.075C141.328,-234.389 139.605,-227.974 138.481,-222 137.543,-217.015 136.839,-211.66 136.311,-206.48"/>
<polygon fill="gray" stroke="gray" points="139.778,-205.937 135.456,-196.264 132.803,-206.521 139.778,-205.937"/>
<text text-anchor="middle" x="175.862" y="-215.6" font-family="Helvetica,sans-Serif" font-size="8.00">ecrm:P9_consists_of</text>
</g>
<!-- other_prod -->
<g id="node9" class="node"><title>other_prod</title>
<text text-anchor="middle" x="234.735" y="-175" font-family="Helvetica,sans-Serif" font-size="10.00">Other production info</text>
</g>
<!-- production&#45;&gt;other_prod -->
<g id="edge8" class="edge"><title>production&#45;&gt;other_prod</title>
<path fill="none" stroke="gray" d="M176.351,-246.343C188.633,-240.562 202.579,-232.439 212.735,-222 217.34,-217.267 221.193,-211.376 224.322,-205.489"/>
<polygon fill="gray" stroke="gray" points="227.508,-206.94 228.646,-196.406 221.187,-203.931 227.508,-206.94"/>
<text text-anchor="middle" x="222.069" y="-215.6" font-family="Helvetica,sans-Serif" font-size="8.00">...</text>
</g>
<!-- timespan -->
<g id="node6" class="node"><title>timespan</title>
<ellipse fill="none" stroke="gray" cx="134.735" cy="-98" rx="32.8294" ry="18"/>
<text text-anchor="middle" x="134.735" y="-95" font-family="Helvetica,sans-Serif" font-size="10.00">timespan</text>
</g>
<!-- date&#45;&gt;timespan -->
<g id="edge5" class="edge"><title>date&#45;&gt;timespan</title>
<path fill="none" stroke="gray" d="M134.735,-159.689C134.735,-149.894 134.735,-137.422 134.735,-126.335"/>
<polygon fill="gray" stroke="gray" points="138.235,-126.262 134.735,-116.262 131.235,-126.262 138.235,-126.262"/>
<text text-anchor="middle" x="178.088" y="-135.6" font-family="Helvetica,sans-Serif" font-size="8.00">ecrm:P4_has_time&#45;span</text>
</g>
<!-- start_date -->
<g id="node7" class="node"><title>start_date</title>
<ellipse fill="none" stroke="gray" cx="66.7348" cy="-18" rx="34.828" ry="18"/>
<text text-anchor="middle" x="66.7348" y="-15" font-family="Helvetica,sans-Serif" font-size="10.00">start_date</text>
</g>
<!-- timespan&#45;&gt;start_date -->
<g id="edge6" class="edge"><title>timespan&#45;&gt;start_date</title>
<path fill="none" stroke="gray" d="M105.598,-89.5265C91.4682,-84.285 75.76,-75.6942 67.3129,-62 64.4467,-57.3534 63.1708,-51.8529 62.8105,-46.3654"/>
<polygon fill="gray" stroke="gray" points="66.3171,-46.1414 63.0686,-36.0569 59.3193,-45.9661 66.3171,-46.1414"/>
<text text-anchor="middle" x="124.446" y="-55.6" font-family="Helvetica,sans-Serif" font-size="8.00">ecrm:P82a_begin_of_the_begin</text>
</g>
<!-- other_date -->
<g id="node10" class="node"><title>other_date</title>
<text text-anchor="middle" x="202.735" y="-15" font-family="Helvetica,sans-Serif" font-size="10.00">End of begin, Start of end...</text>
</g>
<!-- timespan&#45;&gt;other_date -->
<g id="edge9" class="edge"><title>timespan&#45;&gt;other_date</title>
<path fill="none" stroke="gray" d="M155.643,-84.0943C164.163,-78.1192 173.652,-70.4665 180.735,-62 184.802,-57.138 188.386,-51.398 191.417,-45.7224"/>
<polygon fill="gray" stroke="gray" points="194.728,-46.9184 195.983,-36.3981 188.442,-43.8394 194.728,-46.9184"/>
<text text-anchor="middle" x="190.069" y="-55.6" font-family="Helvetica,sans-Serif" font-size="8.00">...</text>
</g>
</g>
</svg>
