<?xml version="1.0" encoding="UTF-8" standalone="no"?>
<!DOCTYPE svg PUBLIC "-//W3C//DTD SVG 1.1//EN"
 "http://www.w3.org/Graphics/SVG/1.1/DTD/svg11.dtd">
<!-- Generated by graphviz version 2.38.0 (20140413.2041)
 -->
<!-- Title: %3 Pages: 1 -->
<svg width="262pt" height="124pt"
 viewBox="0.00 0.00 261.53 124.00" xmlns="http://www.w3.org/2000/svg" xmlns:xlink="http://www.w3.org/1999/xlink">
<g id="graph0" class="graph" transform="scale(1 1) rotate(0) translate(4 120)">
<title>%3</title>
<polygon fill="white" stroke="none" points="-4,4 -4,-120 257.533,-120 257.533,4 -4,4"/>
<!-- nw -->
<g id="node1" class="node"><title>nw</title>
<ellipse fill="none" stroke="gray" cx="49.3505" cy="-98" rx="49.2014" ry="18"/>
<text text-anchor="middle" x="49.3505" y="-95" font-family="Helvetica,sans-Serif" font-size="10.00">The Nightwatch</text>
</g>
<!-- oil -->
<g id="node3" class="node"><title>oil</title>
<ellipse fill="none" stroke="gray" cx="117.35" cy="-18" rx="42.8742" ry="18"/>
<text text-anchor="middle" x="117.35" y="-15" font-family="Helvetica,sans-Serif" font-size="10.00">oil on canvas</text>
</g>
<!-- nw&#45;&gt;oil -->
<g id="edge1" class="edge"><title>nw&#45;&gt;oil</title>
<path fill="none" stroke="gray" d="M63.7715,-80.4582C73.3018,-69.5265 85.9453,-55.0236 96.5567,-42.8517"/>
<polygon fill="gray" stroke="gray" points="99.2502,-45.0882 103.183,-35.2505 93.9738,-40.4882 99.2502,-45.0882"/>
<text text-anchor="middle" x="108.138" y="-55.6" font-family="Helvetica,sans-Serif" font-size="8.00">has medium</text>
</g>
<!-- wb -->
<g id="node2" class="node"><title>wb</title>
<ellipse fill="none" stroke="gray" cx="185.35" cy="-98" rx="68.3645" ry="18"/>
<text text-anchor="middle" x="185.35" y="-95" font-family="Helvetica,sans-Serif" font-size="10.00">Woman with a Balance</text>
</g>
<!-- wb&#45;&gt;oil -->
<g id="edge2" class="edge"><title>wb&#45;&gt;oil</title>
<path fill="none" stroke="gray" d="M170.595,-80.0752C161.138,-69.2266 148.718,-54.9801 138.252,-42.9755"/>
<polygon fill="gray" stroke="gray" points="140.589,-40.3299 131.38,-35.0922 135.313,-44.9299 140.589,-40.3299"/>
<text text-anchor="middle" x="176.138" y="-55.6" font-family="Helvetica,sans-Serif" font-size="8.00">has medium</text>
</g>
</g>
</svg>
