<?xml version="1.0" encoding="UTF-8" standalone="no"?>
<!DOCTYPE svg PUBLIC "-//W3C//DTD SVG 1.1//EN"
 "http://www.w3.org/Graphics/SVG/1.1/DTD/svg11.dtd">
<!-- Generated by graphviz version 2.38.0 (20140413.2041)
 -->
<!-- Title: %3 Pages: 1 -->
<svg width="636pt" height="364pt"
 viewBox="0.00 0.00 636.30 364.00" xmlns="http://www.w3.org/2000/svg" xmlns:xlink="http://www.w3.org/1999/xlink">
<g id="graph0" class="graph" transform="scale(1 1) rotate(0) translate(4 360)">
<title>%3</title>
<polygon fill="white" stroke="none" points="-4,4 -4,-360 632.301,-360 632.301,4 -4,4"/>
<!-- o -->
<g id="node1" class="node"><title>o</title>
<ellipse fill="none" stroke="red" cx="274.27" cy="-338" rx="53.3595" ry="18"/>
<text text-anchor="middle" x="274.27" y="-335" font-family="Helvetica,sans-Serif" font-size="10.00">object/PPA82633</text>
</g>
<!-- th1 -->
<g id="node2" class="node"><title>th1</title>
<ellipse fill="none" stroke="red" cx="40.2702" cy="-258" rx="40.0417" ry="18"/>
<text text-anchor="middle" x="40.2702" y="-255" font-family="Helvetica,sans-Serif" font-size="10.00">thes:x11409</text>
</g>
<!-- o&#45;&gt;th1 -->
<g id="edge1" class="edge"><title>o&#45;&gt;th1</title>
<path fill="none" stroke="red" d="M224.341,-331.342C190.446,-326.351 145.117,-317.397 107.454,-302 93.6639,-296.363 79.5997,-287.87 67.927,-279.917"/>
<polygon fill="red" stroke="red" points="69.704,-276.888 59.5111,-273.997 65.6765,-282.613 69.704,-276.888"/>
<text text-anchor="middle" x="147.178" y="-295.6" font-family="Helvetica,sans-Serif" font-size="8.00">ecrm:p45_consists_of</text>
</g>
<!-- dep -->
<g id="node4" class="node"><title>dep</title>
<ellipse fill="none" stroke="red" cx="172.27" cy="-258" rx="74.1479" ry="18"/>
<text text-anchor="middle" x="172.27" y="-255" font-family="Helvetica,sans-Serif" font-size="10.00">person&#45;institution/147800</text>
</g>
<!-- o&#45;&gt;dep -->
<g id="edge3" class="edge"><title>o&#45;&gt;dep</title>
<path fill="none" stroke="red" d="M235.65,-325.351C222.058,-319.869 207.403,-312.234 196.239,-302 191.195,-297.376 186.961,-291.439 183.525,-285.462"/>
<polygon fill="red" stroke="red" points="186.46,-283.516 178.779,-276.219 180.234,-286.714 186.46,-283.516"/>
<text text-anchor="middle" x="228.286" y="-295.6" font-family="Helvetica,sans-Serif" font-size="8.00">ecrm:P62_depicts</text>
</g>
<!-- etc -->
<g id="node6" class="node"><title>etc</title>
<ellipse fill="none" stroke="gray" cx="274.27" cy="-18" rx="27" ry="18"/>
<text text-anchor="middle" x="274.27" y="-15" font-family="Helvetica,sans-Serif" font-size="10.00">etc...</text>
</g>
<!-- o&#45;&gt;etc -->
<g id="edge10" class="edge"><title>o&#45;&gt;etc</title>
<path fill="none" stroke="gray" d="M274.27,-319.958C274.27,-304.156 274.27,-279.99 274.27,-259 274.27,-259 274.27,-259 274.27,-97 274.27,-80.1099 274.27,-61.1626 274.27,-46.172"/>
<polygon fill="gray" stroke="gray" points="277.77,-46.0417 274.27,-36.0418 270.77,-46.0418 277.77,-46.0417"/>
</g>
<!-- own -->
<g id="node7" class="node"><title>own</title>
<ellipse fill="none" stroke="red" cx="395.27" cy="-258" rx="93.1176" ry="18"/>
<text text-anchor="middle" x="395.27" y="-255" font-family="Helvetica,sans-Serif" font-size="10.00">thesIdentifier:the&#45;british&#45;museum</text>
</g>
<!-- o&#45;&gt;own -->
<g id="edge5" class="edge"><title>o&#45;&gt;own</title>
<path fill="none" stroke="red" d="M297.887,-321.776C315.86,-310.19 340.856,-294.077 361.023,-281.077"/>
<polygon fill="red" stroke="red" points="363.112,-283.894 369.621,-275.534 359.319,-278.011 363.112,-283.894"/>
<text text-anchor="middle" x="392.854" y="-295.6" font-family="Helvetica,sans-Serif" font-size="8.00">ecrm:P54_has_current_owner</text>
</g>
<!-- con -->
<g id="node8" class="node"><title>con</title>
<ellipse fill="none" stroke="red" cx="524.27" cy="-178" rx="80.1403" ry="18"/>
<text text-anchor="middle" x="524.27" y="-175" font-family="Helvetica,sans-Serif" font-size="10.00">object/PPA82633/concept/1</text>
</g>
<!-- o&#45;&gt;con -->
<g id="edge6" class="edge"><title>o&#45;&gt;con</title>
<path fill="none" stroke="red" d="M322.863,-330.474C381.749,-321.472 475.782,-303.207 497.27,-276 513.047,-256.024 519.612,-227.389 522.339,-206.409"/>
<polygon fill="red" stroke="red" points="525.845,-206.541 523.445,-196.222 518.886,-205.786 525.845,-206.541"/>
<text text-anchor="middle" x="548.839" y="-255.6" font-family="Helvetica,sans-Serif" font-size="8.00">ecrm:P128_carries</text>
</g>
<!-- th1lab -->
<g id="node3" class="node"><title>th1lab</title>
<ellipse fill="none" stroke="gray" cx="40.2702" cy="-178" rx="27" ry="18"/>
<text text-anchor="middle" x="40.2702" y="-175" font-family="Helvetica,sans-Serif" font-size="10.00">paper</text>
</g>
<!-- th1&#45;&gt;th1lab -->
<g id="edge2" class="edge"><title>th1&#45;&gt;th1lab</title>
<path fill="none" stroke="gray" d="M40.2702,-239.689C40.2702,-229.894 40.2702,-217.422 40.2702,-206.335"/>
<polygon fill="gray" stroke="gray" points="43.7703,-206.262 40.2702,-196.262 36.7703,-206.262 43.7703,-206.262"/>
<text text-anchor="middle" x="66.2858" y="-215.6" font-family="Helvetica,sans-Serif" font-size="8.00">skos:prefLabel</text>
</g>
<!-- deplab -->
<g id="node5" class="node"><title>deplab</title>
<ellipse fill="none" stroke="gray" cx="172.27" cy="-178" rx="66.8537" ry="18"/>
<text text-anchor="middle" x="172.27" y="-175" font-family="Helvetica,sans-Serif" font-size="10.00">Julius Caesar Scaliger</text>
</g>
<!-- dep&#45;&gt;deplab -->
<g id="edge4" class="edge"><title>dep&#45;&gt;deplab</title>
<path fill="none" stroke="gray" d="M172.27,-239.689C172.27,-229.894 172.27,-217.422 172.27,-206.335"/>
<polygon fill="gray" stroke="gray" points="175.77,-206.262 172.27,-196.262 168.77,-206.262 175.77,-206.262"/>
<text text-anchor="middle" x="198.286" y="-215.6" font-family="Helvetica,sans-Serif" font-size="8.00">skos:prefLabel</text>
</g>
<!-- contype -->
<g id="node9" class="node"><title>contype</title>
<ellipse fill="none" stroke="gray" cx="431.27" cy="-98" rx="85.8678" ry="18"/>
<text text-anchor="middle" x="431.27" y="-95" font-family="Helvetica,sans-Serif" font-size="10.00">ecrm:E73_Information_Object</text>
</g>
<!-- con&#45;&gt;contype -->
<g id="edge7" class="edge"><title>con&#45;&gt;contype</title>
<path fill="none" stroke="gray" d="M504.547,-160.458C491.321,-149.365 473.71,-134.595 459.068,-122.314"/>
<polygon fill="gray" stroke="gray" points="461.196,-119.531 451.285,-115.787 456.698,-124.895 461.196,-119.531"/>
<text text-anchor="middle" x="494.61" y="-135.6" font-family="Helvetica,sans-Serif" font-size="8.00">rdf:type</text>
</g>
<!-- concon -->
<g id="node10" class="node"><title>concon</title>
<ellipse fill="none" stroke="gray" cx="576.27" cy="-98" rx="40.8927" ry="18"/>
<text text-anchor="middle" x="576.27" y="-95" font-family="Helvetica,sans-Serif" font-size="10.00">thes:x12440</text>
</g>
<!-- con&#45;&gt;concon -->
<g id="edge8" class="edge"><title>con&#45;&gt;concon</title>
<path fill="none" stroke="gray" d="M535.553,-160.075C542.599,-149.507 551.795,-135.713 559.664,-123.91"/>
<polygon fill="gray" stroke="gray" points="562.73,-125.619 565.365,-115.357 556.906,-121.736 562.73,-125.619"/>
<text text-anchor="middle" x="588.96" y="-135.6" font-family="Helvetica,sans-Serif" font-size="8.00">ecrm:P129_is_about</text>
</g>
<!-- conlab -->
<g id="node11" class="node"><title>conlab</title>
<ellipse fill="none" stroke="gray" cx="576.27" cy="-18" rx="33.894" ry="18"/>
<text text-anchor="middle" x="576.27" y="-15" font-family="Helvetica,sans-Serif" font-size="10.00">academic</text>
</g>
<!-- concon&#45;&gt;conlab -->
<g id="edge9" class="edge"><title>concon&#45;&gt;conlab</title>
<path fill="none" stroke="gray" d="M576.27,-79.6893C576.27,-69.8938 576.27,-57.4218 576.27,-46.335"/>
<polygon fill="gray" stroke="gray" points="579.77,-46.2623 576.27,-36.2623 572.77,-46.2624 579.77,-46.2623"/>
<text text-anchor="middle" x="602.286" y="-55.6" font-family="Helvetica,sans-Serif" font-size="8.00">skos:prefLabel</text>
</g>
</g>
</svg>
