<?xml version="1.0" encoding="UTF-8" standalone="no"?>
<!DOCTYPE svg PUBLIC "-//W3C//DTD SVG 1.1//EN"
 "http://www.w3.org/Graphics/SVG/1.1/DTD/svg11.dtd">
<!-- Generated by graphviz version 2.38.0 (20140413.2041)
 -->
<!-- Title: %3 Pages: 1 -->
<svg width="438pt" height="204pt"
 viewBox="0.00 0.00 437.70 204.00" xmlns="http://www.w3.org/2000/svg" xmlns:xlink="http://www.w3.org/1999/xlink">
<g id="graph0" class="graph" transform="scale(1 1) rotate(0) translate(4 200)">
<title>%3</title>
<polygon fill="white" stroke="none" points="-4,4 -4,-200 433.703,-200 433.703,4 -4,4"/>
<!-- nw -->
<g id="node1" class="node"><title>nw</title>
<ellipse fill="none" stroke="red" cx="132" cy="-178" rx="49.2014" ry="18"/>
<text text-anchor="middle" x="132" y="-175" font-family="Helvetica,sans-Serif" font-size="10.00">The Nightwatch</text>
</g>
<!-- rr -->
<g id="node2" class="node"><title>rr</title>
<ellipse fill="none" stroke="gray" cx="132" cy="-98" rx="60.0217" ry="18"/>
<text text-anchor="middle" x="132" y="-95" font-family="Helvetica,sans-Serif" font-size="10.00">Rembrandt van Rijn</text>
</g>
<!-- nw&#45;&gt;rr -->
<g id="edge1" class="edge"><title>nw&#45;&gt;rr</title>
<path fill="none" stroke="gray" d="M132,-159.689C132,-149.894 132,-137.422 132,-126.335"/>
<polygon fill="gray" stroke="gray" points="135.5,-126.262 132,-116.262 128.5,-126.262 135.5,-126.262"/>
<text text-anchor="middle" x="158.902" y="-135.6" font-family="Helvetica,sans-Serif" font-size="8.00">was created by</text>
</g>
<!-- oil -->
<g id="node5" class="node"><title>oil</title>
<ellipse fill="none" stroke="orange" cx="253" cy="-98" rx="42.8742" ry="18"/>
<text text-anchor="middle" x="253" y="-95" font-family="Helvetica,sans-Serif" font-size="10.00">oil on canvas</text>
</g>
<!-- nw&#45;&gt;oil -->
<g id="edge3" class="edge"><title>nw&#45;&gt;oil</title>
<path fill="none" stroke="orange" d="M157.026,-162.314C167.32,-156.166 179.313,-148.864 190,-142 201.055,-134.9 213.004,-126.844 223.494,-119.64"/>
<polygon fill="orange" stroke="orange" points="225.67,-122.391 231.91,-113.829 221.692,-116.63 225.67,-122.391"/>
<text text-anchor="middle" x="224.787" y="-135.6" font-family="Helvetica,sans-Serif" font-size="8.00">has medium</text>
</g>
<!-- nwd -->
<g id="node7" class="node"><title>nwd</title>
<ellipse fill="none" stroke="gray" cx="27" cy="-98" rx="27" ry="18"/>
<text text-anchor="middle" x="27" y="-95" font-family="Helvetica,sans-Serif" font-size="10.00">1642</text>
</g>
<!-- nw&#45;&gt;nwd -->
<g id="edge2" class="edge"><title>nw&#45;&gt;nwd</title>
<path fill="none" stroke="gray" d="M106.831,-162.288C97.1064,-156.312 86.029,-149.141 76.418,-142 67.2865,-135.215 57.7459,-127.167 49.5101,-119.879"/>
<polygon fill="gray" stroke="gray" points="51.8465,-117.273 42.0698,-113.191 47.1667,-122.479 51.8465,-117.273"/>
<text text-anchor="middle" x="102.791" y="-135.6" font-family="Helvetica,sans-Serif" font-size="8.00">was created in</text>
</g>
<!-- d -->
<g id="node6" class="node"><title>d</title>
<ellipse fill="none" stroke="gray" cx="263" cy="-18" rx="27" ry="18"/>
<text text-anchor="middle" x="263" y="-15" font-family="Helvetica,sans-Serif" font-size="10.00">Dutch</text>
</g>
<!-- rr&#45;&gt;d -->
<g id="edge5" class="edge"><title>rr&#45;&gt;d</title>
<path fill="none" stroke="gray" d="M157.881,-81.5897C180.033,-68.4005 211.867,-49.4456 234.691,-35.8559"/>
<polygon fill="gray" stroke="gray" points="236.761,-38.6968 243.563,-30.5735 233.18,-32.6822 236.761,-38.6968"/>
<text text-anchor="middle" x="227.572" y="-55.6" font-family="Helvetica,sans-Serif" font-size="8.00">has nationality</text>
</g>
<!-- rrb -->
<g id="node8" class="node"><title>rrb</title>
<ellipse fill="none" stroke="gray" cx="132" cy="-18" rx="27" ry="18"/>
<text text-anchor="middle" x="132" y="-15" font-family="Helvetica,sans-Serif" font-size="10.00">1606</text>
</g>
<!-- rr&#45;&gt;rrb -->
<g id="edge4" class="edge"><title>rr&#45;&gt;rrb</title>
<path fill="none" stroke="gray" d="M132,-79.6893C132,-69.8938 132,-57.4218 132,-46.335"/>
<polygon fill="gray" stroke="gray" points="135.5,-46.2623 132,-36.2623 128.5,-46.2624 135.5,-46.2623"/>
<text text-anchor="middle" x="152.455" y="-55.6" font-family="Helvetica,sans-Serif" font-size="8.00">was born in</text>
</g>
<!-- jv -->
<g id="node3" class="node"><title>jv</title>
<ellipse fill="none" stroke="gray" cx="372" cy="-98" rx="57.9076" ry="18"/>
<text text-anchor="middle" x="372" y="-95" font-family="Helvetica,sans-Serif" font-size="10.00">Johannes Vermeer</text>
</g>
<!-- jv&#45;&gt;d -->
<g id="edge6" class="edge"><title>jv&#45;&gt;d</title>
<path fill="none" stroke="gray" d="M349.942,-81.2155C332.328,-68.6108 307.605,-50.9191 289.023,-37.6222"/>
<polygon fill="gray" stroke="gray" points="290.879,-34.6462 280.71,-31.673 286.805,-40.3388 290.879,-34.6462"/>
<text text-anchor="middle" x="345.572" y="-55.6" font-family="Helvetica,sans-Serif" font-size="8.00">has nationality</text>
</g>
<!-- wb -->
<g id="node4" class="node"><title>wb</title>
<ellipse fill="none" stroke="red" cx="332" cy="-178" rx="68.3645" ry="18"/>
<text text-anchor="middle" x="332" y="-175" font-family="Helvetica,sans-Serif" font-size="10.00">Woman with a Balance</text>
</g>
<!-- wb&#45;&gt;jv -->
<g id="edge7" class="edge"><title>wb&#45;&gt;jv</title>
<path fill="none" stroke="gray" d="M340.679,-160.075C345.921,-149.854 352.71,-136.616 358.626,-125.079"/>
<polygon fill="gray" stroke="gray" points="361.889,-126.387 363.338,-115.892 355.66,-123.193 361.889,-126.387"/>
<text text-anchor="middle" x="379.902" y="-135.6" font-family="Helvetica,sans-Serif" font-size="8.00">was created by</text>
</g>
<!-- wb&#45;&gt;oil -->
<g id="edge8" class="edge"><title>wb&#45;&gt;oil</title>
<path fill="none" stroke="orange" d="M315.246,-160.458C303.919,-149.274 288.806,-134.352 276.308,-122.013"/>
<polygon fill="orange" stroke="orange" points="278.497,-119.255 268.921,-114.72 273.578,-124.236 278.497,-119.255"/>
<text text-anchor="middle" x="316.787" y="-135.6" font-family="Helvetica,sans-Serif" font-size="8.00">has medium</text>
</g>
</g>
</svg>
